<svg width="32" height="33" viewBox="0 0 32 33" fill="none" xmlns="http://www.w3.org/2000/svg">
<path d="M31 26.8125C31 27.086 30.8946 27.3483 30.7071 27.5417C30.5196 27.7351 30.2652 27.8437 30 27.8437H2C1.73478 27.8437 1.48043 27.7351 1.29289 27.5417C1.10536 27.3483 1 27.086 1 26.8125C1 26.539 1.10536 26.2767 1.29289 26.0833C1.48043 25.8899 1.73478 25.7812 2 25.7812H30C30.2652 25.7812 30.5196 25.8899 30.7071 26.0833C30.8946 26.2767 31 26.539 31 26.8125ZM2.0375 12.656C1.97802 12.4397 1.9887 12.2093 2.0679 11.9999C2.1471 11.7905 2.2905 11.6135 2.47625 11.4958L15.4762 3.24584C15.6338 3.14596 15.8151 3.09308 16 3.09308C16.1849 3.09308 16.3662 3.14596 16.5238 3.24584L29.5238 11.4958C29.7096 11.6133 29.8531 11.7902 29.9324 11.9996C30.0118 12.2089 30.0226 12.4392 29.9633 12.6555C29.904 12.8718 29.7778 13.0622 29.6039 13.1977C29.43 13.3332 29.218 13.4065 29 13.4062H26V21.6562H28C28.2652 21.6562 28.5196 21.7649 28.7071 21.9583C28.8946 22.1517 29 22.414 29 22.6875C29 22.961 28.8946 23.2233 28.7071 23.4167C28.5196 23.6101 28.2652 23.7187 28 23.7187H4C3.73478 23.7187 3.48043 23.6101 3.29289 23.4167C3.10536 23.2233 3 22.961 3 22.6875C3 22.414 3.10536 22.1517 3.29289 21.9583C3.48043 21.7649 3.73478 21.6562 4 21.6562H6V13.4062H3C2.78224 13.4063 2.5704 13.3331 2.39668 13.1977C2.22295 13.0623 2.09684 12.8721 2.0375 12.656ZM18 20.625C18 20.8985 18.1054 21.1608 18.2929 21.3542C18.4804 21.5476 18.7348 21.6562 19 21.6562C19.2652 21.6562 19.5196 21.5476 19.7071 21.3542C19.8946 21.1608 20 20.8985 20 20.625V14.4375C20 14.164 19.8946 13.9017 19.7071 13.7083C19.5196 13.5149 19.2652 13.4062 19 13.4062C18.7348 13.4062 18.4804 13.5149 18.2929 13.7083C18.1054 13.9017 18 14.164 18 14.4375V20.625ZM12 20.625C12 20.8985 12.1054 21.1608 12.2929 21.3542C12.4804 21.5476 12.7348 21.6562 13 21.6562C13.2652 21.6562 13.5196 21.5476 13.7071 21.3542C13.8946 21.1608 14 20.8985 14 20.625V14.4375C14 14.164 13.8946 13.9017 13.7071 13.7083C13.5196 13.5149 13.2652 13.4062 13 13.4062C12.7348 13.4062 12.4804 13.5149 12.2929 13.7083C12.1054 13.9017 12 14.164 12 14.4375V20.625Z" fill="url(#paint0_linear_7631_58007)"/>
<defs>
<linearGradient id="paint0_linear_7631_58007" x1="29.6719" y1="3.7806" x2="8.88497" y2="17.6004" gradientUnits="userSpaceOnUse">
<stop stop-color="#01FFCC"/>
<stop offset="1" stop-color="#0041C5"/>
</linearGradient>
</defs>
</svg>
