<svg width="32" height="33" viewBox="0 0 32 33" fill="none" xmlns="http://www.w3.org/2000/svg">
<g clip-path="url(#clip0_7631_57981)">
<path d="M0.203125 4.125C0.203125 3.03098 0.70014 1.98177 1.58483 1.20818C2.46953 0.434597 3.66943 0 4.92057 0H26.6208C27.2403 0 27.8538 0.106696 28.4261 0.313997C28.9985 0.521298 29.5185 0.825143 29.9566 1.20818C30.3946 1.59123 30.7421 2.04596 30.9792 2.54643C31.2162 3.0469 31.3383 3.5833 31.3383 4.125V27.6375C31.3383 27.9657 31.1892 28.2805 30.9237 28.5125C30.6583 28.7446 30.2984 28.875 29.923 28.875H3.03359C3.03359 29.3126 3.2324 29.7323 3.58628 30.0417C3.94015 30.3512 4.42011 30.525 4.92057 30.525H29.923C30.2984 30.525 30.6583 30.6554 30.9237 30.8875C31.1892 31.1195 31.3383 31.4343 31.3383 31.7625C31.3383 32.0907 31.1892 32.4055 30.9237 32.6375C30.6583 32.8696 30.2984 33 29.923 33H4.92057C3.66943 33 2.46953 32.5654 1.58483 31.7918C0.70014 31.0182 0.203125 29.969 0.203125 28.875V4.125ZM11.8967 9.0156C10.8117 9.46935 9.63801 10.296 9.63801 11.55C9.63801 12.804 10.8117 13.629 11.8967 14.0844C13.0704 14.5745 14.6083 14.85 16.2424 14.85C17.8766 14.85 19.4144 14.5745 20.5881 14.0844C21.6732 13.6307 22.8469 12.804 22.8469 11.55C22.8469 10.296 21.675 9.471 20.5881 9.0156C19.4126 8.52555 17.8766 8.25 16.2424 8.25C14.6083 8.25 13.0704 8.52555 11.8967 9.0156ZM22.8374 14.6685C21.2807 15.7856 18.9031 16.5 16.2424 16.5C13.5818 16.5 11.2042 15.7856 9.64745 14.6685C9.64103 14.7288 9.63788 14.7894 9.63801 14.85C9.63801 16.6733 12.5949 18.15 16.2424 18.15C19.89 18.15 22.8469 16.6733 22.8469 14.85C22.8465 14.7894 22.8434 14.7289 22.8374 14.6685ZM16.2424 19.8C13.5818 19.8 11.2042 19.0856 9.64745 17.9685C9.64104 18.0288 9.63789 18.0894 9.63801 18.15C9.63801 19.9732 12.5949 21.45 16.2424 21.45C19.89 21.45 22.8469 19.9732 22.8469 18.15C22.847 18.0894 22.8439 18.0288 22.8374 17.9685C21.2807 19.0856 18.9031 19.8 16.2424 19.8Z" fill="url(#paint0_linear_7631_57981)"/>
</g>
<defs>
<linearGradient id="paint0_linear_7631_57981" x1="29.9599" y1="0.916667" x2="5.42235" y2="13.615" gradientUnits="userSpaceOnUse">
<stop stop-color="#01FFCC"/>
<stop offset="1" stop-color="#0041C5"/>
</linearGradient>
<clipPath id="clip0_7631_57981">
<rect width="32" height="33" fill="white"/>
</clipPath>
</defs>
</svg>
