<svg width="32" height="33" viewBox="0 0 32 33" fill="none" xmlns="http://www.w3.org/2000/svg">
<path d="M22.2437 0.00128774C16.8554 0.00128774 12.4873 2.48537 12.4873 5.55409C12.4873 8.62281 16.8566 11.1082 22.2437 11.1082C27.6319 11.1082 32 8.62281 32 5.55409C32 2.48537 27.6307 0.00128774 22.2437 0.00128774ZM32 7.2037C31.9975 10.2724 27.6319 12.7578 22.2437 12.7578C16.8704 12.7578 12.5123 10.2995 12.4873 7.24491V9.41735C12.4873 10.7283 13.3015 11.9285 14.6351 12.8788C15.9838 13.2574 17.185 13.7828 18.1853 14.4473C19.4253 14.7718 20.7889 14.9701 22.2437 14.9701C27.6319 14.9701 32 12.4861 32 9.41735V7.2037ZM32 11.067C32 14.1357 27.6319 16.621 22.2437 16.621C21.5881 16.621 20.9512 16.5708 20.3319 16.5C20.8206 17.1788 21.154 17.9629 21.3071 18.7935C21.618 18.8115 21.9252 18.8334 22.2437 18.8334C27.6319 18.8334 32 16.3493 32 13.2806V11.067ZM9.75634 14.1653C4.36806 14.1653 0 16.6507 0 19.7194C0 22.7881 4.36931 25.2735 9.75634 25.2735C15.1446 25.2735 19.5127 22.7881 19.5127 19.7194C19.5127 16.6507 15.1434 14.1653 9.75634 14.1653ZM32 14.9302C31.9975 17.9989 27.6319 20.4843 22.2437 20.4843C21.9302 20.4843 21.613 20.4611 21.3071 20.4431C21.2934 20.5397 21.2859 20.6685 21.2684 20.765C21.3308 20.9595 21.3845 21.1514 21.3845 21.3703V22.658C21.668 22.6722 21.9527 22.6967 22.2437 22.6967C27.6319 22.6967 32 20.2126 32 17.1439V14.9302ZM32 18.7935C31.9975 21.8622 27.6319 24.3476 22.2437 24.3476C21.9302 24.3476 21.613 24.3244 21.3071 24.3064C21.2934 24.403 21.2859 24.5317 21.2684 24.6283C21.3308 24.8215 21.3845 25.0146 21.3845 25.2336V26.5213C21.668 26.5355 21.9527 26.5599 22.2437 26.5599C27.6319 26.5599 32 24.0759 32 21.0071V18.7935ZM19.5127 21.369C19.5102 24.4377 15.1446 26.9231 9.75634 26.9231C4.38305 26.9231 0.0249746 24.4648 0 21.4089V23.5827C0 26.6514 4.36682 29.1367 9.75634 29.1367C15.1459 29.1367 19.5127 26.6514 19.5127 23.5827V21.369ZM19.5127 25.2323C19.5102 28.301 15.1446 30.7864 9.75634 30.7864C4.38305 30.7864 0.0249746 28.328 0 25.2722V27.4459C0 30.5146 4.36682 33 9.75634 33C15.1459 33 19.5127 30.5146 19.5127 27.4459V25.2323Z" fill="url(#paint0_linear_7631_57974)"/>
<defs>
<linearGradient id="paint0_linear_7631_57974" x1="30.5833" y1="0.916667" x2="5.66075" y2="14.1725" gradientUnits="userSpaceOnUse">
<stop stop-color="#01FFCC"/>
<stop offset="1" stop-color="#0041C5"/>
</linearGradient>
</defs>
</svg>
