<svg width="32" height="33" viewBox="0 0 32 33" fill="none" xmlns="http://www.w3.org/2000/svg">
<path d="M1.77778 18.3333H12.4444C13.4222 18.3333 14.2222 17.5083 14.2222 16.5V1.83333C14.2222 0.825 13.4222 0 12.4444 0H1.77778C0.8 0 0 0.825 0 1.83333V16.5C0 17.5083 0.8 18.3333 1.77778 18.3333ZM1.77778 33H12.4444C13.4222 33 14.2222 32.175 14.2222 31.1667V23.8333C14.2222 22.825 13.4222 22 12.4444 22H1.77778C0.8 22 0 22.825 0 23.8333V31.1667C0 32.175 0.8 33 1.77778 33ZM19.5556 33H30.2222C31.2 33 32 32.175 32 31.1667V16.5C32 15.4917 31.2 14.6667 30.2222 14.6667H19.5556C18.5778 14.6667 17.7778 15.4917 17.7778 16.5V31.1667C17.7778 32.175 18.5778 33 19.5556 33ZM17.7778 1.83333V9.16667C17.7778 10.175 18.5778 11 19.5556 11H30.2222C31.2 11 32 10.175 32 9.16667V1.83333C32 0.825 31.2 0 30.2222 0H19.5556C18.5778 0 17.7778 0.825 17.7778 1.83333Z" fill="url(#paint0_linear_7631_57998)"/>
<defs>
<linearGradient id="paint0_linear_7631_57998" x1="30.5833" y1="0.916667" x2="5.66075" y2="14.1725" gradientUnits="userSpaceOnUse">
<stop stop-color="#01FFCC"/>
<stop offset="1" stop-color="#0041C5"/>
</linearGradient>
</defs>
</svg>
