<svg width="32" height="27" viewBox="0 0 32 27" fill="none" xmlns="http://www.w3.org/2000/svg">
<path d="M1.77778 14.1028C1.46345 14.1028 1.16199 13.9758 0.939725 13.7495C0.71746 13.5233 0.592593 13.2164 0.592593 12.8965C0.592593 12.5766 0.71746 12.2697 0.939725 12.0435C1.16199 11.8172 1.46345 11.6902 1.77778 11.6902H5.92593C6.24026 11.6902 6.54171 11.5631 6.76398 11.3368C6.98624 11.1106 7.11111 10.8037 7.11111 10.4838C7.11111 10.1639 6.98624 9.85702 6.76398 9.63078C6.54171 9.40455 6.24026 9.27745 5.92593 9.27745H3.55556C2.61256 9.27745 1.70819 8.89616 1.0414 8.21746C0.374602 7.53876 0 6.61824 0 5.6584C0 4.69857 0.374602 3.77805 1.0414 3.09935C1.70819 2.42065 2.61256 2.03936 3.55556 2.03936C3.55556 1.71941 3.68042 1.41257 3.90269 1.18634C4.12495 0.960105 4.42641 0.833008 4.74074 0.833008C5.05507 0.833008 5.35653 0.960105 5.57879 1.18634C5.80106 1.41257 5.92593 1.71941 5.92593 2.03936H7.11111C7.42544 2.03936 7.7269 2.16645 7.94916 2.39269C8.17143 2.61892 8.2963 2.92576 8.2963 3.24571C8.2963 3.56565 8.17143 3.87249 7.94916 4.09872C7.7269 4.32496 7.42544 4.45206 7.11111 4.45206H3.55556C3.24122 4.45206 2.93977 4.57915 2.7175 4.80539C2.49524 5.03162 2.37037 5.33846 2.37037 5.6584C2.37037 5.97835 2.49524 6.28519 2.7175 6.51142C2.93977 6.73766 3.24122 6.86475 3.55556 6.86475H5.92593C6.86892 6.86475 7.77329 7.24605 8.44008 7.92475C9.10688 8.60345 9.48148 9.52397 9.48148 10.4838C9.48148 11.4436 9.10688 12.3642 8.44008 13.0429C7.77329 13.7216 6.86892 14.1028 5.92593 14.1028C5.92593 14.4228 5.80106 14.7296 5.57879 14.9559C5.35653 15.1821 5.05507 15.3092 4.74074 15.3092C4.42641 15.3092 4.12495 15.1821 3.90269 14.9559C3.68042 14.7296 3.55556 14.4228 3.55556 14.1028H1.77778ZM30.8148 2.03936H11.8519C11.5375 2.03936 11.2361 2.16645 11.0138 2.39269C10.7915 2.61892 10.6667 2.92576 10.6667 3.24571C10.6667 3.56565 10.7915 3.87249 11.0138 4.09872C11.2361 4.32496 11.5375 4.45206 11.8519 4.45206H29.6296V9.27745H13.037C12.7227 9.27745 12.4213 9.40455 12.199 9.63078C11.9767 9.85702 11.8519 10.1639 11.8519 10.4838C11.8519 10.8037 11.9767 11.1106 12.199 11.3368C12.4213 11.5631 12.7227 11.6902 13.037 11.6902H21.3333V16.5155H9.48148C9.16715 16.5155 8.86569 16.6426 8.64343 16.8689C8.42116 17.0951 8.2963 17.402 8.2963 17.7219C8.2963 18.0418 8.42116 18.3487 8.64343 18.5749C8.86569 18.8012 9.16715 18.9282 9.48148 18.9282H21.3333V23.7536H3.55556V17.7219C3.55556 17.402 3.43069 17.0951 3.20842 16.8689C2.98616 16.6426 2.6847 16.5155 2.37037 16.5155C2.05604 16.5155 1.75458 16.6426 1.53232 16.8689C1.31005 17.0951 1.18519 17.402 1.18519 17.7219V23.7536C1.18519 24.3935 1.43492 25.0072 1.87945 25.4597C2.32398 25.9121 2.92689 26.1663 3.55556 26.1663H29.6296C30.2583 26.1663 30.8612 25.9121 31.3057 25.4597C31.7503 25.0072 32 24.3935 32 23.7536V3.24571C32 2.92576 31.8751 2.61892 31.6529 2.39269C31.4306 2.16645 31.1291 2.03936 30.8148 2.03936Z" fill="url(#paint0_linear_7828_80598)"/>
<defs>
<linearGradient id="paint0_linear_7828_80598" x1="30.5833" y1="1.53671" x2="8.98037" y2="16.5042" gradientUnits="userSpaceOnUse">
<stop stop-color="#01FFCC"/>
<stop offset="1" stop-color="#0041C5"/>
</linearGradient>
</defs>
</svg>
