<svg width="32" height="31" viewBox="0 0 32 31" fill="none" xmlns="http://www.w3.org/2000/svg">
<path d="M31.7059 12.5294C31.6741 12.3684 31.608 12.2163 31.5121 12.0832C31.4162 11.9501 31.2928 11.8392 31.1503 11.758L26.8891 9.3296L26.872 4.52709C26.8715 4.36169 26.8351 4.19838 26.7653 4.04843C26.6955 3.89848 26.594 3.76547 26.4677 3.65858C24.922 2.3511 23.142 1.34913 21.2224 0.705938C21.0712 0.65477 20.911 0.635834 20.7521 0.65035C20.5932 0.664866 20.439 0.712511 20.2996 0.790218L16.0014 3.1929L11.6988 0.785932C11.5593 0.707788 11.405 0.659783 11.2458 0.645019C11.0866 0.630256 10.9261 0.649063 10.7746 0.700224C8.85611 1.34755 7.07805 2.3534 5.53496 3.6643C5.40893 3.77103 5.30752 3.90381 5.23773 4.0535C5.16794 4.20319 5.13143 4.36622 5.13071 4.53138L5.10928 9.33817L0.848157 11.7666C0.705598 11.8477 0.582183 11.9586 0.4863 12.0917C0.390417 12.2248 0.324314 12.377 0.292483 12.5379C-0.0974944 14.4976 -0.0974944 16.515 0.292483 18.4747C0.324314 18.6356 0.390417 18.7878 0.4863 18.9209C0.582183 19.054 0.705598 19.1649 0.848157 19.246L5.10928 21.6744L5.12642 26.4784C5.12694 26.6438 5.16335 26.8071 5.23315 26.957C5.30294 27.107 5.40446 27.24 5.53068 27.3469C7.07638 28.6544 8.85637 29.6563 10.776 30.2995C10.9272 30.3507 11.0874 30.3696 11.2463 30.3551C11.4053 30.3406 11.5594 30.293 11.6988 30.2152L16.0014 27.8054L20.3039 30.2124C20.4742 30.3073 20.6661 30.3565 20.861 30.3552C20.9858 30.3552 21.1098 30.3349 21.2281 30.2952C23.1461 29.6482 24.9241 28.6434 26.4677 27.334C26.5938 27.2273 26.6952 27.0945 26.765 26.9448C26.8348 26.7951 26.8713 26.6321 26.872 26.4669L26.8934 21.6601L31.1545 19.2317C31.2971 19.1506 31.4205 19.0397 31.5164 18.9066C31.6123 18.7735 31.6784 18.6213 31.7102 18.4604C32.098 16.5022 32.0966 14.4869 31.7059 12.5294ZM16.0014 21.213C14.8713 21.213 13.7665 20.8779 12.8269 20.2501C11.8873 19.6222 11.1549 18.7298 10.7224 17.6858C10.29 16.6417 10.1768 15.4928 10.3973 14.3844C10.6177 13.2761 11.1619 12.2579 11.961 11.4588C12.7601 10.6597 13.7782 10.1155 14.8866 9.89507C15.995 9.6746 17.1439 9.78776 18.188 10.2202C19.232 10.6527 20.1244 11.3851 20.7523 12.3247C21.3801 13.2643 21.7152 14.3691 21.7152 15.4992C21.7152 17.0146 21.1132 18.4679 20.0417 19.5395C18.9701 20.611 17.5168 21.213 16.0014 21.213Z" fill="url(#paint0_linear_7631_57993)"/>
<defs>
<linearGradient id="paint0_linear_7631_57993" x1="30.5833" y1="1.46568" x2="6.87834" y2="15.4655" gradientUnits="userSpaceOnUse">
<stop stop-color="#01FFCC"/>
<stop offset="1" stop-color="#0041C5"/>
</linearGradient>
</defs>
</svg>
