<svg width="32" height="34" viewBox="0 0 32 34" fill="none" xmlns="http://www.w3.org/2000/svg">
<path d="M16.0112 7.89665C16.0673 7.09635 16.3236 6.3247 16.7551 5.65703C17.1866 4.98937 17.7787 4.4485 18.4734 4.08722C19.1682 3.72594 19.9419 3.5566 20.719 3.59573C21.4962 3.63486 22.2502 3.88112 22.9075 4.31048C22.9827 4.36118 23.0432 4.43183 23.0827 4.51499C23.1222 4.59815 23.1393 4.69075 23.1322 4.78307C23.125 4.87539 23.0938 4.96402 23.042 5.03964C22.9902 5.11526 22.9195 5.17508 22.8375 5.21282C21.6949 5.74297 20.7249 6.60204 20.0442 7.68683C19.3634 8.77162 19.0009 10.036 19 11.3281C19 11.479 19 11.6298 19.015 11.778C19.0219 11.8717 19.0038 11.9656 18.9627 12.0495C18.9217 12.1333 18.8591 12.204 18.7819 12.2539C18.7047 12.3038 18.6158 12.331 18.5247 12.3326C18.4335 12.3341 18.3438 12.31 18.265 12.2627C17.5283 11.8282 16.9258 11.1877 16.5271 10.4151C16.1283 9.64259 15.9495 8.76951 16.0112 7.89665ZM30 21.2036C30.0018 21.7929 29.8435 22.3709 29.543 22.8722C29.2426 23.3734 28.8119 23.7778 28.3 24.0396L28.245 24.0654L23.3913 26.1975C23.3433 26.2193 23.2935 26.2365 23.2425 26.249L15.2425 28.3115C15.1633 28.3326 15.0818 28.3434 15 28.3438H2C1.46957 28.3438 0.960859 28.1265 0.585786 27.7397C0.210714 27.3529 0 26.8283 0 26.2813V21.125C0 20.578 0.210714 20.0534 0.585786 19.6666C0.960859 19.2798 1.46957 19.0625 2 19.0625H5.58625L8.41375 16.1454C8.78451 15.7613 9.22539 15.4568 9.71092 15.2495C10.1964 15.0422 10.717 14.9362 11.2425 14.9375H17.5C18.0282 14.9374 18.5496 15.0607 19.0251 15.298C19.5005 15.5353 19.9177 15.8805 20.2454 16.3077C20.5731 16.7349 20.8028 17.2331 20.9172 17.7649C21.0317 18.2967 21.0279 18.8483 20.9062 19.3783L26.1362 18.1383C26.5915 18.0139 27.0685 17.999 27.5302 18.0948C27.992 18.1906 28.4262 18.3944 28.7995 18.6905C29.1728 18.9867 29.4752 19.3673 29.6833 19.803C29.8915 20.2387 29.9998 20.7179 30 21.2036ZM28 21.2036C27.9998 21.0331 27.9616 20.865 27.8882 20.7121C27.8148 20.5593 27.7083 20.426 27.5769 20.3226C27.4455 20.2191 27.2927 20.1482 27.1305 20.1155C26.9682 20.0827 26.8008 20.089 26.6413 20.1337L26.6025 20.144L18.2275 22.1305C18.154 22.1474 18.079 22.156 18.0037 22.1563H14C13.7348 22.1563 13.4804 22.0476 13.2929 21.8542C13.1054 21.6608 13 21.3985 13 21.125C13 20.8515 13.1054 20.5892 13.2929 20.3958C13.4804 20.2024 13.7348 20.0938 14 20.0938H17.5C17.8978 20.0938 18.2794 19.9308 18.5607 19.6407C18.842 19.3506 19 18.9571 19 18.5469C19 18.1366 18.842 17.7432 18.5607 17.4531C18.2794 17.163 17.8978 17 17.5 17H11.2425C10.9798 16.9991 10.7195 17.0521 10.4768 17.1559C10.2341 17.2597 10.0138 17.4122 9.82875 17.6046L7 20.5204V26.2813H14.875L22.6787 24.269L27.4287 22.1833C27.6016 22.0894 27.7463 21.9484 27.847 21.7757C27.9477 21.603 28.0006 21.4052 28 21.2036ZM21 11.3281C21 12.246 21.2639 13.1432 21.7584 13.9063C22.2529 14.6695 22.9557 15.2643 23.7779 15.6155C24.6002 15.9668 25.505 16.0587 26.3779 15.8796C27.2508 15.7005 28.0526 15.2586 28.682 14.6096C29.3113 13.9605 29.7399 13.1337 29.9135 12.2335C30.0872 11.3333 29.9981 10.4002 29.6575 9.55224C29.3169 8.70428 28.7401 7.97951 28.0001 7.46959C27.26 6.95968 26.39 6.68751 25.5 6.68751C24.3065 6.68751 23.1619 7.17643 22.318 8.04672C21.4741 8.917 21 10.0974 21 11.3281Z" fill="url(#paint0_linear_7631_57951)"/>
<defs>
<linearGradient id="paint0_linear_7631_57951" x1="28.6719" y1="4.27781" x2="7.88348" y2="18.097" gradientUnits="userSpaceOnUse">
<stop stop-color="#01FFCC"/>
<stop offset="1" stop-color="#0041C5"/>
</linearGradient>
</defs>
</svg>
