<svg width="42" height="57" viewBox="0 0 42 57" fill="none" xmlns="http://www.w3.org/2000/svg">
<path fill-rule="evenodd" clip-rule="evenodd" d="M27.0158 28.5C27.0158 28.2099 26.9006 27.9317 26.6954 27.7266C26.4903 27.5215 26.2121 27.4062 25.922 27.4062H9.91975L12.7795 24.9562C12.8887 24.8628 12.9784 24.7487 13.0435 24.6206C13.1086 24.4925 13.1478 24.3528 13.1589 24.2095C13.17 24.0663 13.1528 23.9222 13.1082 23.7856C13.0636 23.649 12.9926 23.5225 12.8991 23.4133C12.8057 23.3042 12.6916 23.2145 12.5635 23.1494C12.4354 23.0843 12.2957 23.0451 12.1524 23.034C12.0092 23.0229 11.8651 23.0401 11.7285 23.0847C11.5919 23.1292 11.4654 23.2003 11.3562 23.2937L6.25204 27.6687C6.13197 27.7714 6.03556 27.8989 5.96947 28.0424C5.90337 28.1859 5.86914 28.342 5.86914 28.5C5.86914 28.658 5.90337 28.8141 5.96947 28.9576C6.03556 29.1011 6.13197 29.2285 6.25204 29.3312L11.3562 33.7062C11.5767 33.895 11.8631 33.9884 12.1524 33.966C12.4418 33.9436 12.7104 33.8071 12.8991 33.5866C13.0879 33.3662 13.1813 33.0798 13.1589 32.7904C13.1365 32.5011 13 32.2325 12.7795 32.0437L9.9212 29.5937H25.922C26.2121 29.5937 26.4903 29.4785 26.6954 29.2734C26.9006 29.0683 27.0158 28.7901 27.0158 28.5Z" fill="white"/>
<path d="M17.1719 22.6667C17.1719 23.6904 17.1719 24.2023 17.4183 24.5713C17.5245 24.7299 17.6607 24.8662 17.8194 24.9723C18.1883 25.2188 18.7002 25.2188 19.724 25.2188H25.9219C26.7921 25.2188 27.6267 25.5645 28.2421 26.1798C28.8574 26.7952 29.2031 27.6298 29.2031 28.5C29.2031 29.3703 28.8574 30.2049 28.2421 30.8202C27.6267 31.4356 26.7921 31.7813 25.9219 31.7813H19.724C18.7002 31.7813 18.1883 31.7813 17.8194 32.0263C17.6606 32.1328 17.5243 32.2696 17.4183 32.4288C17.1719 32.7977 17.1719 33.3096 17.1719 34.3334C17.1719 38.4575 17.1719 40.5211 18.4537 41.8015C19.7342 43.0834 21.7962 43.0834 25.9204 43.0834H27.3788C31.5058 43.0834 33.5665 43.0834 34.8483 41.8015C36.1302 40.5211 36.1302 38.4575 36.1302 34.3334V22.6667C36.1302 18.5425 36.1302 16.479 34.8483 15.1986C33.5665 13.9167 31.5044 13.9167 27.3802 13.9167H25.9219C21.7963 13.9167 19.7342 13.9167 18.4537 15.1986C17.1719 16.479 17.1719 18.5425 17.1719 22.6667Z" fill="white"/>
</svg>
