<svg width="30" height="28" viewBox="0 0 30 28" fill="none" xmlns="http://www.w3.org/2000/svg">
<path d="M2.30762 0.5H27.6924C28.1102 0.500017 28.5142 0.646549 28.8359 0.913086L28.9688 1.03516C29.3082 1.37847 29.4999 1.8452 29.5 2.33301V21C29.5 21.427 29.3532 21.838 29.0889 22.1641L28.9688 22.2979C28.6293 22.6411 28.17 22.833 27.6924 22.833H8.32227L8.18066 22.9561L3.48047 27.0518L3.47656 27.0557L3.46875 27.0625L3.45996 27.0693C3.1373 27.3464 2.72918 27.4977 2.30762 27.499C2.1107 27.4986 1.91537 27.4671 1.72949 27.4033L1.54688 27.3291L1.54395 27.3271L1.42969 27.2695C1.20465 27.145 1.00827 26.9725 0.854492 26.7637L0.78125 26.6562C0.618952 26.399 0.523831 26.1046 0.503906 25.8008L0.5 25.6699V2.33301C0.500075 1.906 0.646828 1.495 0.911133 1.16895L1.03125 1.03516C1.32831 0.734791 1.71729 0.55015 2.12988 0.508789L2.30762 0.5ZM9.50977 9.58887C9.15247 9.43923 8.76315 9.38604 8.38086 9.43359L8.21777 9.45996C7.83828 9.53629 7.48609 9.71048 7.19531 9.96387L7.07422 10.0771C6.80158 10.3528 6.60603 10.6946 6.50391 11.0674L6.46582 11.2285C6.38017 11.6639 6.42365 12.1159 6.5918 12.5264C6.75995 12.9367 7.04535 13.2883 7.41211 13.5361C7.77909 13.7841 8.21185 13.917 8.6543 13.917C9.17333 13.9169 9.67267 13.7338 10.0693 13.4053L10.2334 13.2559C10.651 12.8336 10.8847 12.2618 10.8848 11.667C10.8848 11.2788 10.7852 10.8974 10.5967 10.5605L10.5098 10.4189C10.2958 10.0952 10.0028 9.83315 9.65918 9.6582L9.50977 9.58887ZM15.8555 9.58887C15.4983 9.4393 15.1097 9.38616 14.7275 9.43359L14.5635 9.45996C14.184 9.53633 13.8318 9.71042 13.541 9.96387L13.4209 10.0771C13.1482 10.3528 12.9517 10.6946 12.8496 11.0674L12.8115 11.2285C12.7259 11.6639 12.7703 12.1159 12.9385 12.5264C13.1067 12.9367 13.392 13.2883 13.7588 13.5361C14.1257 13.784 14.5576 13.917 15 13.917C15.5193 13.917 16.0192 13.7341 16.416 13.4053L16.5791 13.2559C16.9968 12.8336 17.2304 12.2618 17.2305 11.667C17.2305 11.2787 17.131 10.8975 16.9424 10.5605L16.8564 10.4189C16.6426 10.0953 16.3493 9.83315 16.0059 9.6582L15.8555 9.58887ZM22.2012 9.58887C21.844 9.43935 21.4554 9.38608 21.0732 9.43359L20.9102 9.45996C20.5307 9.53628 20.1785 9.71051 19.8877 9.96387L19.7666 10.0771C19.494 10.3528 19.2984 10.6947 19.1963 11.0674L19.1582 11.2285C19.0833 11.6095 19.1077 12.0028 19.2275 12.3701L19.2842 12.5264C19.4313 12.8854 19.6682 13.1995 19.9707 13.4385L20.1045 13.5361C20.4713 13.784 20.9034 13.9169 21.3457 13.917C21.8649 13.917 22.3649 13.7339 22.7617 13.4053L22.9258 13.2559C23.3434 12.8336 23.5771 12.2618 23.5771 11.667C23.5771 11.2788 23.4776 10.8974 23.2891 10.5605L23.2021 10.4189C22.9882 10.0952 22.6951 9.83315 22.3516 9.6582L22.2012 9.58887Z" stroke="#000153" stroke-width="2" />
</svg>
