<svg width="32" height="33" viewBox="0 0 32 33" fill="none" xmlns="http://www.w3.org/2000/svg">
<path d="M3.99967 19.25L4.66634 19.3462L10.7597 13.0625C10.6374 12.6008 10.6372 12.1137 10.7592 11.6519C10.8811 11.1901 11.1207 10.7703 11.453 10.4363C12.493 9.35 14.173 9.35 15.213 10.4363C15.9197 11.1513 16.1463 12.1688 15.9063 13.0625L19.333 16.5962L19.9997 16.5C20.2397 16.5 20.4663 16.5 20.6663 16.5962L25.4263 11.6875C25.333 11.4813 25.333 11.2475 25.333 11C25.333 10.2707 25.614 9.57118 26.1141 9.05546C26.6142 8.53973 27.2924 8.25 27.9997 8.25C28.7069 8.25 29.3852 8.53973 29.8853 9.05546C30.3854 9.57118 30.6663 10.2707 30.6663 11C30.6663 11.7293 30.3854 12.4288 29.8853 12.9445C29.3852 13.4603 28.7069 13.75 27.9997 13.75C27.7597 13.75 27.533 13.75 27.333 13.6538L22.573 18.5625C22.6663 18.7688 22.6663 19.0025 22.6663 19.25C22.6663 19.9793 22.3854 20.6788 21.8853 21.1945C21.3852 21.7103 20.7069 22 19.9997 22C19.2924 22 18.6142 21.7103 18.1141 21.1945C17.614 20.6788 17.333 19.9793 17.333 19.25L17.4263 18.5625L13.9997 15.0288C13.573 15.125 13.093 15.125 12.6663 15.0288L6.57301 21.3125L6.66634 22C6.66634 22.7293 6.38539 23.4288 5.88529 23.9445C5.3852 24.4603 4.70692 24.75 3.99967 24.75C3.29243 24.75 2.61415 24.4603 2.11406 23.9445C1.61396 23.4288 1.33301 22.7293 1.33301 22C1.33301 21.2707 1.61396 20.5712 2.11406 20.0555C2.61415 19.5397 3.29243 19.25 3.99967 19.25Z" fill="url(#paint0_linear_7631_58165)"/>
<defs>
<linearGradient id="paint0_linear_7631_58165" x1="29.3677" y1="8.70833" x2="14.3442" y2="23.358" gradientUnits="userSpaceOnUse">
<stop stop-color="#01FFCC"/>
<stop offset="1" stop-color="#0041C5"/>
</linearGradient>
</defs>
</svg>
