<svg width="32" height="23" viewBox="0 0 32 23" fill="none" xmlns="http://www.w3.org/2000/svg">
<path d="M31.789 7.93977L28.5988 1.46908C28.4812 1.23092 28.3186 1.01855 28.1201 0.844122C27.9216 0.669689 27.6911 0.536602 27.4419 0.452461C27.1927 0.36832 26.9295 0.334773 26.6675 0.353736C26.4055 0.372699 26.1497 0.443801 25.9148 0.56298L22.8058 2.1382L16.2565 0.38176C16.0885 0.337428 15.912 0.337428 15.744 0.38176L9.19471 2.1382L6.08571 0.56298C5.85079 0.443801 5.59502 0.372699 5.33299 0.353736C5.07096 0.334773 4.80782 0.36832 4.55859 0.452461C4.30935 0.536602 4.07891 0.669689 3.88041 0.844122C3.68192 1.01855 3.51927 1.23092 3.40174 1.46908L0.211486 7.93851C0.0939213 8.17665 0.0237835 8.43594 0.00507762 8.70156C-0.0136283 8.96719 0.0194641 9.23394 0.102465 9.4866C0.185466 9.73926 0.31675 9.97287 0.488819 10.1741C0.660888 10.3753 0.870372 10.5402 1.10531 10.6593L4.48058 12.3714L11.4174 17.3936C11.5196 17.4673 11.6345 17.5211 11.7562 17.552L19.7568 19.5797C19.9244 19.6223 20.0999 19.6201 20.2664 19.5735C20.4329 19.5269 20.5847 19.4373 20.7069 19.3135L25.7073 14.2445L27.5924 12.3334L30.8952 10.6593C31.3693 10.4187 31.7298 9.99709 31.8974 9.48713C32.0651 8.97716 32.0261 8.4206 31.789 7.93977ZM24.9272 12.1687L20.6256 8.67606C20.4329 8.51961 20.1899 8.44095 19.9434 8.45522C19.697 8.4695 19.4644 8.57569 19.2905 8.75336C17.0641 11.0268 14.5826 10.7392 13 9.72536L18.4054 4.40282H22.382L25.7835 11.298L24.9272 12.1687ZM19.693 17.4735L12.4275 15.6321L6.27697 11.1789L9.77725 4.0822L16.0002 2.41066L17.2253 2.73889L11.5999 8.27433L11.5899 8.28574C11.3781 8.50041 11.2166 8.76054 11.1173 9.04694C11.018 9.33334 10.9833 9.63869 11.016 9.94047C11.0486 10.2422 11.1477 10.5327 11.3059 10.7905C11.464 11.0483 11.6773 11.2668 11.9299 11.4298C14.5001 13.0938 17.6016 12.8238 20.0443 10.7962L23.5009 13.6108L19.693 17.4735ZM16.4778 21.8836C16.4238 22.1027 16.2991 22.2972 16.1236 22.4364C15.9481 22.5755 15.7318 22.6512 15.509 22.6515C15.4268 22.6514 15.3449 22.6412 15.2652 22.6211L10.051 21.2994C9.92919 21.2689 9.8142 21.2151 9.71225 21.141L6.41823 18.7559C6.21569 18.5947 6.0823 18.3605 6.04583 18.1021C6.00936 17.8437 6.07263 17.581 6.22246 17.3687C6.37228 17.1564 6.59712 17.0108 6.85016 16.9624C7.10319 16.9139 7.36491 16.9662 7.58083 17.1085L10.7198 19.382L15.7502 20.6543C16.0075 20.7196 16.2287 20.8857 16.3651 21.1162C16.5015 21.3467 16.5421 21.6228 16.4778 21.8836Z" fill="url(#paint0_linear_7631_53664)"/>
<defs>
<linearGradient id="paint0_linear_7631_53664" x1="30.5833" y1="0.96804" x2="10.8388" y2="16.5066" gradientUnits="userSpaceOnUse">
<stop stop-color="#01FFCC"/>
<stop offset="1" stop-color="#0041C5"/>
</linearGradient>
</defs>
</svg>
