<svg width="33" height="33" viewBox="0 0 33 33" fill="none" xmlns="http://www.w3.org/2000/svg">
<path d="M22.1719 15.4688C22.1719 16.5905 21.8392 17.6871 21.216 18.6199C20.5928 19.5526 19.7069 20.2796 18.6705 20.7089C17.6341 21.1382 16.4937 21.2505 15.3935 21.0316C14.2932 20.8128 13.2826 20.2726 12.4894 19.4794C11.6962 18.6861 11.156 17.6755 10.9371 16.5753C10.7183 15.475 10.8306 14.3346 11.2599 13.2982C11.6892 12.2618 12.4161 11.376 13.3489 10.7528C14.2816 10.1295 15.3782 9.79688 16.5 9.79688C18.0038 9.79858 19.4454 10.3967 20.5087 11.46C21.5721 12.5233 22.1702 13.965 22.1719 15.4688ZM29.9063 16.5C29.9063 19.1515 29.12 21.7435 27.6469 23.9481C26.1738 26.1528 24.08 27.8711 21.6304 28.8858C19.1807 29.9004 16.4851 30.1659 13.8846 29.6487C11.284 29.1314 8.89525 27.8545 7.02036 25.9797C5.14546 24.1048 3.86864 21.716 3.35135 19.1154C2.83407 16.5149 3.09956 13.8193 4.11425 11.3696C5.12893 8.91998 6.84725 6.82621 9.05189 5.35311C11.2565 3.88001 13.8485 3.09375 16.5 3.09375C20.0544 3.0975 23.4622 4.51115 25.9755 7.0245C28.4889 9.53784 29.9025 12.9456 29.9063 16.5ZM27.8438 16.5C27.8421 14.9731 27.5326 13.4623 26.9336 12.0578C26.3347 10.6534 25.4586 9.38411 24.3579 8.32597C23.2571 7.26783 21.9543 6.44255 20.5273 5.89947C19.1003 5.3564 17.5784 5.10669 16.0527 5.16527C9.98122 5.39988 5.1395 10.4569 5.15626 16.5322C5.16208 19.2979 6.18212 21.9655 8.02313 24.0294C8.77288 22.942 9.72526 22.0093 10.8281 21.2824C10.9222 21.2203 11.0339 21.1907 11.1464 21.1982C11.2588 21.2056 11.3657 21.2497 11.4507 21.3237C12.8522 22.5358 14.6432 23.2029 16.4961 23.2029C18.3491 23.2029 20.1401 22.5358 21.5415 21.3237C21.6265 21.2497 21.7334 21.2056 21.8459 21.1982C21.9583 21.1907 22.0701 21.2203 22.1641 21.2824C23.2684 22.0089 24.2221 22.9416 24.973 24.0294C26.8231 21.9579 27.8451 19.2774 27.8438 16.5Z" fill="#5C5F66"/>
</svg>
