<svg width="32" height="34" viewBox="0 0 32 34" fill="none" xmlns="http://www.w3.org/2000/svg">
<g clip-path="url(#clip0_7631_57968)">
<path d="M28.982 8.01355H3.38199C3.04252 8.01355 2.71694 7.87527 2.4769 7.62913C2.23685 7.38299 2.10199 7.04915 2.10199 6.70105C2.10199 6.35295 2.23685 6.01911 2.4769 5.77297C2.71694 5.52683 3.04252 5.38855 3.38199 5.38855H25.142C25.4815 5.38855 25.807 5.25027 26.0471 5.00413C26.2871 4.75799 26.422 4.42415 26.422 4.07605C26.422 3.72795 26.2871 3.39411 26.0471 3.14797C25.807 2.90183 25.4815 2.76355 25.142 2.76355H3.38199C2.36356 2.76355 1.38684 3.17839 0.666702 3.91682C-0.0534374 4.65524 -0.458008 5.65676 -0.458008 6.70105V27.701C-0.458008 28.7453 -0.0534374 29.7469 0.666702 30.4853C1.38684 31.2237 2.36356 31.6385 3.38199 31.6385H28.982C29.6609 31.6385 30.3121 31.362 30.7922 30.8697C31.2723 30.3774 31.542 29.7097 31.542 29.0135V10.6385C31.542 9.94236 31.2723 9.27468 30.7922 8.78239C30.3121 8.29011 29.6609 8.01355 28.982 8.01355ZM23.222 21.1385C22.8423 21.1385 22.471 21.0231 22.1553 20.8068C21.8396 20.5904 21.5935 20.2829 21.4481 19.9232C21.3028 19.5635 21.2648 19.1676 21.3389 18.7857C21.413 18.4038 21.5958 18.053 21.8643 17.7777C22.1329 17.5023 22.475 17.3148 22.8474 17.2389C23.2199 17.1629 23.6059 17.2019 23.9567 17.3509C24.3076 17.4999 24.6074 17.7523 24.8184 18.076C25.0294 18.3998 25.142 18.7804 25.142 19.1698C25.142 19.6919 24.9397 20.1927 24.5796 20.5619C24.2196 20.9311 23.7312 21.1385 23.222 21.1385Z" fill="url(#paint0_linear_7631_57968)"/>
</g>
<defs>
<linearGradient id="paint0_linear_7631_57968" x1="30.1253" y1="3.56563" x2="6.77874" y2="17.7572" gradientUnits="userSpaceOnUse">
<stop stop-color="#01FFCC"/>
<stop offset="1" stop-color="#0041C5"/>
</linearGradient>
<clipPath id="clip0_7631_57968">
<rect width="32" height="33" fill="white" transform="translate(0 0.5)"/>
</clipPath>
</defs>
</svg>
