<svg width="16" height="17" viewBox="0 0 16 17" fill="none" xmlns="http://www.w3.org/2000/svg">
<path d="M7.5 9.5H6.5C6.36739 9.5 6.24021 9.55268 6.14645 9.64645C6.05268 9.74021 6 9.86739 6 10V13.5C6 13.6326 6.05268 13.7598 6.14645 13.8536C6.24021 13.9473 6.36739 14 6.5 14C6.63261 14 6.75979 13.9473 6.85355 13.8536C6.94732 13.7598 7 13.6326 7 13.5V13H7.5C7.96413 13 8.40925 12.8156 8.73744 12.4874C9.06563 12.1592 9.25 11.7141 9.25 11.25C9.25 10.7859 9.06563 10.3408 8.73744 10.0126C8.40925 9.68437 7.96413 9.5 7.5 9.5ZM7.5 12H7V10.5H7.5C7.69891 10.5 7.88968 10.579 8.03033 10.7197C8.17098 10.8603 8.25 11.0511 8.25 11.25C8.25 11.4489 8.17098 11.6397 8.03033 11.7803C7.88968 11.921 7.69891 12 7.5 12ZM13.5 12V13.0544C13.5 13.1832 13.4503 13.307 13.3612 13.4C13.1872 13.5874 12.9766 13.7373 12.7425 13.8405C12.5085 13.9436 12.2558 13.9979 12 14C10.8969 14 10 12.9906 10 11.75C10 10.5094 10.8969 9.5 12 9.5C12.3676 9.50116 12.7264 9.61263 13.03 9.82C13.1399 9.89459 13.2157 10.0098 13.2406 10.1402C13.2656 10.2707 13.2377 10.4057 13.1631 10.5156C13.0885 10.6255 12.9733 10.7013 12.8429 10.7263C12.7124 10.7512 12.5774 10.7233 12.4675 10.6488C12.3303 10.5529 12.1673 10.5011 12 10.5C11.4488 10.5 11 11.0625 11 11.75C11 12.4375 11.4488 13 12 13C12.1804 12.9979 12.3555 12.9386 12.5 12.8306V12.5C12.3674 12.5 12.2402 12.4473 12.1464 12.3536C12.0527 12.2598 12 12.1326 12 12C12 11.8674 12.0527 11.7402 12.1464 11.6464C12.2402 11.5527 12.3674 11.5 12.5 11.5H13C13.1326 11.5 13.2598 11.5527 13.3536 11.6464C13.4473 11.7402 13.5 11.8674 13.5 12ZM5 10V12.375C5 12.806 4.82879 13.2193 4.52405 13.524C4.2193 13.8288 3.80598 14 3.375 14C2.94402 14 2.5307 13.8288 2.22595 13.524C1.9212 13.2193 1.75 12.806 1.75 12.375C1.75 12.2424 1.80268 12.1152 1.89645 12.0214C1.99021 11.9277 2.11739 11.875 2.25 11.875C2.38261 11.875 2.50979 11.9277 2.60355 12.0214C2.69732 12.1152 2.75 12.2424 2.75 12.375C2.75 12.5408 2.81585 12.6997 2.93306 12.8169C3.05027 12.9342 3.20924 13 3.375 13C3.54076 13 3.69973 12.9342 3.81694 12.8169C3.93415 12.6997 4 12.5408 4 12.375V10C4 9.86739 4.05268 9.74021 4.14645 9.64645C4.24021 9.55268 4.36739 9.5 4.5 9.5C4.63261 9.5 4.75979 9.55268 4.85355 9.64645C4.94732 9.74021 5 9.86739 5 10ZM13.3538 5.64625L9.85375 2.14625C9.80728 2.09983 9.75212 2.06303 9.69143 2.03793C9.63073 2.01284 9.56568 1.99995 9.5 2H3.5C3.23478 2 2.98043 2.10536 2.79289 2.29289C2.60536 2.48043 2.5 2.73478 2.5 3V7.5C2.5 7.63261 2.55268 7.75979 2.64645 7.85355C2.74021 7.94732 2.86739 8 3 8C3.13261 8 3.25979 7.94732 3.35355 7.85355C3.44732 7.75979 3.5 7.63261 3.5 7.5V3H9V6C9 6.13261 9.05268 6.25979 9.14645 6.35355C9.24021 6.44732 9.36739 6.5 9.5 6.5H12.5V7.5C12.5 7.63261 12.5527 7.75979 12.6464 7.85355C12.7402 7.94732 12.8674 8 13 8C13.1326 8 13.2598 7.94732 13.3536 7.85355C13.4473 7.75979 13.5 7.63261 13.5 7.5V6C13.5001 5.93432 13.4872 5.86927 13.4621 5.80858C13.437 5.74788 13.4002 5.69272 13.3538 5.64625ZM10 5.5V3.70688L11.7931 5.5H10Z" fill="#343330"/>
</svg>
