<svg width="16" height="17" viewBox="0 0 16 17" fill="none" xmlns="http://www.w3.org/2000/svg">
<path d="M11.8889 3.5H4.11111C3.5 3.5 3 4 3 4.61111V12.3889C3 13 3.5 13.5 4.11111 13.5H11.8889C12.5 13.5 13 13 13 12.3889V4.61111C13 4 12.5 3.5 11.8889 3.5ZM6.61111 8.22222C6.61111 8.66667 6.22222 9.05556 5.77778 9.05556H5.22222V10.1667H4.38889V6.83333H5.77778C6.22222 6.83333 6.61111 7.22222 6.61111 7.66667V8.22222ZM9.38889 9.33333C9.38889 9.77778 9 10.1667 8.55556 10.1667H7.16667V6.83333H8.55556C9 6.83333 9.38889 7.22222 9.38889 7.66667V9.33333ZM11.6111 7.66667H10.7778V8.22222H11.6111V9.05556H10.7778V10.1667H9.94444V6.83333H11.6111V7.66667ZM8 7.66667H8.55556V9.33333H8V7.66667ZM5.22222 7.66667H5.77778V8.22222H5.22222V7.66667Z" fill="#E82727"/>
</svg>
