<svg width="16" height="17" viewBox="0 0 16 17" fill="none" xmlns="http://www.w3.org/2000/svg">
<path d="M12.5 2H4.5C4.23478 2 3.98043 2.10536 3.79289 2.29289C3.60536 2.48043 3.5 2.73478 3.5 3V4.5H2.5C2.23478 4.5 1.98043 4.60536 1.79289 4.79289C1.60536 4.98043 1.5 5.23478 1.5 5.5V11.5C1.5 11.7652 1.60536 12.0196 1.79289 12.2071C1.98043 12.3946 2.23478 12.5 2.5 12.5H3.5V14C3.5 14.2652 3.60536 14.5196 3.79289 14.7071C3.98043 14.8946 4.23478 15 4.5 15H12.5C12.7652 15 13.0196 14.8946 13.2071 14.7071C13.3946 14.5196 13.5 14.2652 13.5 14V3C13.5 2.73478 13.3946 2.48043 13.2071 2.29289C13.0196 2.10536 12.7652 2 12.5 2ZM4.265 10.1213L3.515 7.12125C3.4978 7.05714 3.49354 6.99024 3.50246 6.92446C3.51139 6.85868 3.53332 6.79533 3.56699 6.73812C3.60065 6.68091 3.64537 6.63097 3.69854 6.59123C3.7517 6.55148 3.81225 6.52272 3.87665 6.50662C3.94105 6.49052 4.00802 6.4874 4.07363 6.49745C4.13925 6.5075 4.20221 6.53052 4.25883 6.56516C4.31546 6.5998 4.36462 6.64537 4.40345 6.69921C4.44229 6.75305 4.47001 6.81408 4.485 6.87875L4.9075 8.56625L5.3025 7.775C5.34397 7.6918 5.40781 7.6218 5.48686 7.57288C5.56591 7.52395 5.65703 7.49803 5.75 7.49803C5.84297 7.49803 5.93409 7.52395 6.01314 7.57288C6.09219 7.6218 6.15603 7.6918 6.1975 7.775L6.5925 8.56625L7.015 6.87875C7.04898 6.7521 7.13135 6.64388 7.24436 6.57738C7.35737 6.51088 7.49198 6.49144 7.61919 6.52324C7.7464 6.55504 7.85602 6.63555 7.92445 6.7474C7.99287 6.85926 8.01462 6.99352 7.985 7.12125L7.235 10.1213C7.21008 10.2202 7.15547 10.3092 7.07848 10.3763C7.0015 10.4433 6.90585 10.4852 6.80438 10.4963C6.78632 10.4982 6.76817 10.4993 6.75 10.4994C6.65711 10.4994 6.56604 10.4736 6.487 10.4248C6.40795 10.376 6.34407 10.3062 6.3025 10.2231L5.75 9.11812L5.1975 10.2238C5.15183 10.3152 5.07924 10.3905 4.98949 10.4394C4.89974 10.4883 4.79715 10.5086 4.69554 10.4974C4.59393 10.4862 4.49819 10.4442 4.42121 10.3769C4.34423 10.3097 4.28971 10.2204 4.265 10.1213ZM12.5 14H4.5V12.5H9C9.26522 12.5 9.51957 12.3946 9.70711 12.2071C9.89464 12.0196 10 11.7652 10 11.5V11H12.5V14ZM12.5 10H10V7H12.5V10ZM12.5 6H10V5.5C10 5.23478 9.89464 4.98043 9.70711 4.79289C9.51957 4.60536 9.26522 4.5 9 4.5H4.5V3H12.5V6Z" fill="#0E3687"/>
</svg>
